<mxfile host="drawio-plugin" modified="2022-02-22T09:38:30.988Z" agent="5.0 (Macintosh; Intel Mac OS X 12_2_1) AppleWebKit/537.36 (KHTML, like Gecko) Chrome/89.0.4389.114 Safari/537.36" etag="ldx5uiDhN6u4917gpjDT" version="15.5.4" type="embed"><diagram id="DWjpSvbVxY2pOprUcE6g" name="Page-1"><mxGraphModel dx="1003" dy="574" grid="1" gridSize="10" guides="1" tooltips="1" connect="1" arrows="1" fold="1" page="1" pageScale="1" pageWidth="827" pageHeight="1169" math="0" shadow="0"><root><mxCell id="0"/><mxCell id="1" parent="0"/><mxCell id="2" value="" style="rounded=0;whiteSpace=wrap;html=1;fillColor=none;strokeColor=none;sketch=1;fontFamily=Architects Daughter;fontSource=https%3A%2F%2Ffonts.googleapis.com%2Fcss%3Ffamily%3DArchitects%2BDaughter;" parent="1" vertex="1"><mxGeometry x="56" y="197" width="889" height="337" as="geometry"/></mxCell><mxCell id="WkdalmxvpJmTztUUumEF-3" value="Domain" style="ellipse;whiteSpace=wrap;html=1;verticalAlign=top;sketch=1;fontFamily=Architects Daughter;fontSource=https%3A%2F%2Ffonts.googleapis.com%2Fcss%3Ffamily%3DArchitects%2BDaughter;" parent="1" vertex="1"><mxGeometry x="240" y="210" width="575.5" height="310" as="geometry"/></mxCell><mxCell id="3" value="" style="edgeStyle=orthogonalEdgeStyle;rounded=0;orthogonalLoop=1;jettySize=auto;html=1;startArrow=classic;startFill=1;endArrow=none;endFill=0;exitX=0;exitY=0.5;exitDx=0;exitDy=0;sketch=1;fontFamily=Architects Daughter;fontSource=https%3A%2F%2Ffonts.googleapis.com%2Fcss%3Ffamily%3DArchitects%2BDaughter;" parent="1" source="7" target="4" edge="1"><mxGeometry relative="1" as="geometry"><mxPoint x="490" y="360" as="sourcePoint"/></mxGeometry></mxCell><mxCell id="4" value="Operational Data" style="rounded=0;whiteSpace=wrap;html=1;fillColor=#f5f5f5;fontColor=#333333;strokeColor=#666666;fontStyle=1;sketch=1;fontFamily=Architects Daughter;fontSource=https%3A%2F%2Ffonts.googleapis.com%2Fcss%3Ffamily%3DArchitects%2BDaughter;" parent="1" vertex="1"><mxGeometry x="270" y="330" width="120" height="60" as="geometry"/></mxCell><mxCell id="5" value="Analysis" style="rounded=0;whiteSpace=wrap;html=1;fillColor=#f5f5f5;fontColor=#333333;strokeColor=#666666;fontStyle=1;sketch=1;fontFamily=Architects Daughter;fontSource=https%3A%2F%2Ffonts.googleapis.com%2Fcss%3Ffamily%3DArchitects%2BDaughter;" parent="1" vertex="1"><mxGeometry x="470" y="240" width="120" height="60" as="geometry"/></mxCell><mxCell id="6" style="rounded=0;orthogonalLoop=1;jettySize=auto;html=1;exitX=0.5;exitY=0;exitDx=0;exitDy=0;startArrow=classic;startFill=1;endArrow=none;endFill=0;dashed=1;sketch=1;fontFamily=Architects Daughter;fontSource=https%3A%2F%2Ffonts.googleapis.com%2Fcss%3Ffamily%3DArchitects%2BDaughter;" parent="1" source="7" target="5" edge="1"><mxGeometry relative="1" as="geometry"/></mxCell><mxCell id="7" value="Analytical Data" style="rounded=0;whiteSpace=wrap;html=1;fillColor=#f5f5f5;fontColor=#333333;strokeColor=#666666;fontStyle=1;sketch=1;fontFamily=Architects Daughter;fontSource=https%3A%2F%2Ffonts.googleapis.com%2Fcss%3Ffamily%3DArchitects%2BDaughter;" parent="1" vertex="1"><mxGeometry x="470" y="330" width="120" height="60" as="geometry"/></mxCell></root></mxGraphModel></diagram></mxfile>